# xmcd CD database file
#
# Track frame offsets:
#	187
#	19837
#	76965
#	90887
#	105220
#	128107
#	143777
#	175952
#	193872
#	221097
#	266560
#	285682
#
# Disc length: 4176 seconds
#
# Revision: 0
# Processed by: cddbd v1.5.1PL2 Copyright (c) Steve Scherf et al.
# Submitted via: CDex 1.51
#
DISCID=a2104e0c
DTITLE=Various Artist - Sound Sketch 5 Vacance Morning
DYEAR=1989
DGENRE=クラシック
TTITLE0=ハイドン/弦楽四重奏曲第17番ヘ短調よりセレナーデ
TTITLE1=ベートーベン/交響曲第6番「田園」より第1楽章
TTITLE2=サン・サーンス/組曲「動物の謝肉祭」より「白鳥」
TTITLE3=ボッケリーニ/弦楽五重奏曲ホ長調よりメヌエット
TTITLE4=マネス/歌劇「タイス」より「タイスの瞑想曲」
TTITLE5=ビゼー/組曲「アルルの女」よりメヌエット
TTITLE6=モーツァルト/クラリネット五重奏曲第2楽章「ラルゲッット」
TTITLE7=モーツァルト/ディベルディメントK.334第3楽章
TTITLE8=ハイドン/弦楽四重奏曲第67番「ひばり」第2楽章
TTITLE9=ベートーベン/ヴァイオリン・ソナタ「春」第1楽章
TTITLE10=グリーグ/組曲「ペールギュント」より「朝」
TTITLE11=ゴダール/歌劇「ジョスラン」より「ジョスランの子守歌」
EXTD=YEAR: 1989
EXTT0=
EXTT1=
EXTT2=
EXTT3=
EXTT4=
EXTT5=
EXTT6=
EXTT7=
EXTT8=
EXTT9=
EXTT10=
EXTT11=
PLAYORDER=
